<?xml version="1.0" encoding="UTF-8"?>
<svg id="Layer_1" data-name="Layer 1" xmlns="http://www.w3.org/2000/svg" width="600 " height="653" viewBox="0 0 598.6 652.59">
  <defs>
    <style>
      .cls-1 {
        fill: none;
        stroke: #00bc70;
        stroke-miterlimit: 10;
        stroke-width: 4px;
      }
    </style>
  </defs>
  <path class="cls-1" d="m18.25,408.26c31.39,119.91,130.51,216.29,260.7,237.9,126.03,20.92,247.14-33.87,316.85-131.15l-154.42-110.13c-28.76,45-79.88,71.07-132.72,62.31-59.06-9.81-102.02-60.12-108.79-120.59l-181.62,61.67Z"/>
  <path class="cls-1" d="m243.8,221.83c29.41-28.6,69.99-43.33,111.64-36.42,37.15,6.17,67.92,28.36,87.33,59.02l152.97-106.82c-48.27-67.46-122.28-116.52-210.58-131.18C278.59-11.26,175.54,25.18,104.11,95.66l-39.95-36.07L2.68,346.59l279.26-90.32-38.14-34.45Z"/>
</svg>
