<?xml version="1.0" encoding="UTF-8"?>
<svg id="Layer_1" data-name="Layer 1" xmlns="http://www.w3.org/2000/svg" viewBox="0 0 100.22 100.22">
  <defs>
    <style>
      .cls-1 {
        fill: #00bc70;
      }
    </style>
  </defs>
  <path class="cls-1" d="m50.11,100.22C22.48,100.22,0,77.74,0,50.11S22.48,0,50.11,0s50.11,22.48,50.11,50.11-22.48,50.11-50.11,50.11Zm0-89.73c-21.85,0-39.62,17.77-39.62,39.62s17.77,39.62,39.62,39.62,39.62-17.77,39.62-39.62S71.96,10.49,50.11,10.49Z"/>
  <path class="cls-1" d="m66.69,34.19s-16.93-7.57-29.26,6.17c-9.44,10.52-5.41,23.77-3.65,28.22l5.35-6.13.64-12.81,3.23.16-.44,8.7,3.81-4.37.63-12.56,3.23.16-.42,8.45,6.44-7.38,2.44,2.13-6.68,7.66,8.76-1.4.51,3.2-12.59,2.01-3.68,4.22,8.52-1.36.51,3.2-12.35,1.97-5.31,6.09c5.15.89,19.31,2.37,27.32-6.56,10.99-12.25,2.98-29.76,2.98-29.76Z"/>
</svg>