<?xml version="1.0" encoding="UTF-8"?>
<svg id="Layer_1" data-name="Layer 1" xmlns="http://www.w3.org/2000/svg" viewBox="0 0 100.22 100.22">
  <defs>
    <style>
      .cls-1 {
        fill: #00bc70;
      }
    </style>
  </defs>
  <path class="cls-1" d="m50.11,100.22C22.48,100.22,0,77.74,0,50.11S22.48,0,50.11,0s50.11,22.48,50.11,50.11-22.48,50.11-50.11,50.11Zm0-89.73c-21.85,0-39.62,17.77-39.62,39.62s17.77,39.62,39.62,39.62,39.62-17.77,39.62-39.62S71.96,10.49,50.11,10.49Z"/>
  <path class="cls-1" d="m68.7,76.43l9.42,9.11,7.42-7.42-14.51-14.7s1.66,6.6-2.33,13Z"/>
  <path class="cls-1" d="m28.15,35.4l-13.47-13.31,7.42-7.42,19.07,17.67h0c-3.66-1.71-8.71-2.77-13.24-2.16h0s0,0,0,0c0,1.85-.06,3.51.23,5.21"/>
  <path class="cls-1" d="m50.11,18.1h0c-7.19,7.19-7.19,16.98,0,24.17h0s0,0,0,0c7.19-7.19,7.19-16.98,0-24.17Z"/>
  <path class="cls-1" d="m33.05,35.4h0s0,0,0,0c0,9.64,6.57,16.22,16.22,16.22h0s0,0,0,0c0-9.64-6.57-16.22-16.22-16.22Z"/>
  <path class="cls-1" d="m67.16,35.4c-9.64,0-16.22,6.57-16.22,16.22h0s0,0,0,0c9.64,0,16.22-6.57,16.22-16.22h0s0,0,0,0Z"/>
  <path class="cls-1" d="m33.05,50.06h0s0,0,0,0c0,9.64,6.57,16.22,16.22,16.22h0s0,0,0,0c0-9.64-6.57-16.22-16.22-16.22Z"/>
  <path class="cls-1" d="m67.16,50.06c-9.64,0-16.22,6.57-16.22,16.22h0,0c9.64,0,16.22-6.57,16.22-16.22h0s0,0,0,0Z"/>
  <path class="cls-1" d="m33.05,64.71h0s0,0,0,0c0,9.64,6.57,16.22,16.22,16.22h0,0c0-9.64-6.57-16.22-16.22-16.22Z"/>
  <path class="cls-1" d="m67.16,64.71c-9.64,0-16.22,6.57-16.22,16.22h0s0,0,0,0c9.64,0,16.22-6.57,16.22-16.22h0s0,0,0,0Z"/>
</svg>