<?xml version="1.0" encoding="UTF-8"?>
<svg id="Layer_1" data-name="Layer 1" xmlns="http://www.w3.org/2000/svg" viewBox="0 0 100.22 100.22">
  <defs>
    <style>
      .cls-1 {
        fill: #00bc70;
      }
    </style>
  </defs>
  <path class="cls-1" d="m50.11,100.22C22.48,100.22,0,77.74,0,50.11S22.48,0,50.11,0s50.11,22.48,50.11,50.11-22.48,50.11-50.11,50.11Zm0-89.73c-21.85,0-39.62,17.77-39.62,39.62s17.77,39.62,39.62,39.62,39.62-17.77,39.62-39.62S71.96,10.49,50.11,10.49Z"/>
  <g>
    <path class="cls-1" d="m65.38,57.96v10.04c0,1.45-.21,2.86-.6,4.19l13.35,13.35,7.42-7.42-20.16-20.16Z"/>
    <path class="cls-1" d="m34.84,39.81c-1.1-1.28-1.75-2.93-1.75-4.67v-4.6c0-1.39.4-2.68,1.09-3.78l-12.08-12.08-7.42,7.42,20.16,20.16v-2.44Z"/>
  </g>
  <path class="cls-1" d="m59.95,27.78h-19.69c-1.52,0-2.76,1.24-2.76,2.76v4.6c0,1.17.74,2.17,1.78,2.57,0,.19-.03.37-.03.56v29.73c0,5.77,4.72,10.49,10.49,10.49h.74c5.77,0,10.49-4.72,10.49-10.49v-29.73c0-.19-.02-.37-.03-.56,1.03-.4,1.78-1.4,1.78-2.57v-4.6c0-1.52-1.24-2.76-2.76-2.76Zm-3.4,40.22c0,3.35-2.72,6.07-6.07,6.07h-.74c-3.35,0-6.07-2.72-6.07-6.07v-16.53h12.88v16.53Z"/>
  <circle class="cls-1" cx="53.88" cy="55.68" r=".48"/>
  <path class="cls-1" d="m55.11,61.75c0,.57-.46,1.03-1.03,1.03s-1.03-.46-1.03-1.03.46-1.03,1.03-1.03,1.03.46,1.03,1.03Z"/>
  <circle class="cls-1" cx="48.64" cy="64.79" r=".69"/>
  <circle class="cls-1" cx="48.43" cy="58.93" r="1.17"/>
  <path class="cls-1" d="m47.52,53.62c0,.26-.21.48-.48.48s-.48-.21-.48-.48.21-.48.48-.48.48.21.48.48Z"/>
  <circle class="cls-1" cx="52.16" cy="69.48" r="1.24"/>
</svg>