<?xml version="1.0" encoding="UTF-8"?>
<svg id="Layer_1" data-name="Layer 1" xmlns="http://www.w3.org/2000/svg" viewBox="0 0 100.22 100.22">
  <defs>
    <style>
      .cls-1 {
        fill: #00bc70;
      }
    </style>
  </defs>
  <path class="cls-1" d="m50.11,100.22C22.48,100.22,0,77.74,0,50.11S22.48,0,50.11,0s50.11,22.48,50.11,50.11-22.48,50.11-50.11,50.11Zm0-89.73c-21.85,0-39.62,17.77-39.62,39.62s17.77,39.62,39.62,39.62,39.62-17.77,39.62-39.62S71.96,10.49,50.11,10.49Z"/>
  <g>
    <path class="cls-1" d="m39.52,39.62s.04-.04.06-.06c1.52-1.49,2.89-2.52,4.11-3.29L22.09,14.68l-7.42,7.42,21.59,21.59c.76-1.21,1.79-2.57,3.26-4.07Z"/>
    <path class="cls-1" d="m59.33,51.92c-.74,1.12-1.77,2.51-3.37,4.08-1.55,1.58-2.93,2.61-4.04,3.34l26.2,26.2,7.42-7.42-26.21-26.21Z"/>
  </g>
  <path class="cls-1" d="m52.84,52.87c3.24-3.17,3.62-5.34,5-6.44,1.45-1,2.68-.24,8.75-3.94,6.03-3.44,7.56-10.61,9.8-11.94-2.3.2-8.75-4.8-16.78-.61-7.69,4.36-7,6.4-8.69,7.55-1.59,1.28-4.22,1.27-8.25,5.22-3.96,4.03-3.94,6.66-5.22,8.25-1.15,1.69-3.19,1-7.55,8.69-4.18,8.03.81,14.48.61,16.78,1.33-2.24,8.5-3.77,11.94-9.8,3.7-6.07,2.94-7.3,3.94-8.75,1.11-1.38,3.28-1.76,6.44-5Zm-18.79,14.07c-1.98-.9-2.35-4.32-.51-7.43,1.83-3.11,4.98-4.41,6.73-3.12,1.75,1.3,1.66,4.4.07,7.12-1.61,2.71-4.29,4.33-6.28,3.42Zm9.5-14.78c-1.69-1.37-1.22-4.74,1.32-7.27,2.53-2.54,5.9-3.01,7.27-1.32,1.38,1.69.52,4.68-1.69,6.89-2.22,2.21-5.2,3.07-6.89,1.69Zm12.82-11.87c-1.29-1.75,0-4.9,3.12-6.73,3.11-1.84,6.52-1.46,7.43.51.91,1.99-.7,4.67-3.42,6.28-2.72,1.6-5.82,1.69-7.12-.07Z"/>
</svg>