<?xml version="1.0" encoding="UTF-8"?>
<svg id="Layer_1" data-name="Layer 1" xmlns="http://www.w3.org/2000/svg" viewBox="0 0 100.22 100.22">
  <defs>
    <style>
      .cls-1 {
        fill: #00bc70;
      }
    </style>
  </defs>
  <path class="cls-1" d="m60.35,45.58c-2.84,0-5.42.99-7.35,2.58-1.11.92-2.02,2.05-2.62,3.32.57.36,1.11.77,1.61,1.2,2.45,2.14,3.99,5.14,3.99,8.47,0,.94-.14,1.86-.37,2.74,1.43.62,3.03.98,4.73.98,5.97,0,10.81-4.32,10.81-9.65s-4.84-9.65-10.81-9.65Zm.87,5.87c-2.79,0-5.93.46-5.93-1.1s2.26-2.82,5.06-2.82,5.06,1.26,5.06,2.82-1.39,1.1-4.18,1.1Z"/>
  <path class="cls-1" d="m43.09,51.5c-5.97,0-10.81,4.32-10.81,9.65s4.84,9.65,10.81,9.65,10.81-4.32,10.81-9.65-4.84-9.65-10.81-9.65Zm.87,5.87c-2.79,0-5.93.46-5.93-1.1s2.26-2.83,5.06-2.83,5.06,1.26,5.06,2.83-1.39,1.1-4.18,1.1Z"/>
  <path class="cls-1" d="m54.39,44.82c1.83-.87,3.86-1.33,5.95-1.33,2.94,0,5.64.91,7.81,2.42.18-.7.29-1.43.29-2.18,0-5.33-4.84-9.65-10.81-9.65-3.77,0-7.09,1.73-9.02,4.35,2.74,1.43,4.77,3.69,5.78,6.4Zm3.24-8.8c2.79,0,5.06,1.26,5.06,2.82s-1.39,1.1-4.18,1.1-5.93.46-5.93-1.1,2.26-2.82,5.06-2.82Z"/>
  <path class="cls-1" d="m50.11,0C22.48,0,0,22.48,0,50.11s22.48,50.11,50.11,50.11c27.63,0,50.11-22.48,50.11-50.11C100.22,22.48,77.74,0,50.11,0Zm31.46,74.15l-9.73-9.73c-2.49,2.65-6.04,4.44-10.04,4.79l12.35,12.35c-6.67,5.11-15.01,8.16-24.04,8.16-21.85,0-39.62-17.77-39.62-39.62,0-9.04,3.05-17.37,8.16-24.04l12.7,12.7c2.71-2.55,6.46-4.16,10.61-4.22l-15.89-15.89c6.67-5.11,15.01-8.16,24.04-8.16,21.85,0,39.62,17.77,39.62,39.62,0,9.04-3.05,17.37-8.16,24.04Z"/>
  <path class="cls-1" d="m43.09,49.41c1.94,0,3.79.4,5.44,1.11.16-.33.33-.65.52-.96.68-1.11,1.55-2.12,2.61-3,0,0,0,0,0,0,.29-.24.59-.46.9-.68-.79-2.41-2.6-4.42-4.99-5.65-1.58-.81-3.4-1.28-5.35-1.28-5.97,0-10.81,4.32-10.81,9.65,0,1.9.62,3.66,1.68,5.15,2.37-2.64,5.97-4.34,10-4.34Zm-.87-8.51c2.11,0,3.92.73,4.68,1.76-.04.35-.07.7-.07,1.06,0,.32.02.63.05.94-.59.39-1.85.16-3.79.16-2.79,0-5.93.46-5.93-1.1s2.26-2.82,5.06-2.82Z"/>
</svg>