<?xml version="1.0" encoding="UTF-8"?>
<svg id="Layer_1" data-name="Layer 1" xmlns="http://www.w3.org/2000/svg" viewBox="0 0 91.1 59.8">
  <defs>
    <style>
      .cls-1 {
        fill: #00bc70;
      }
    </style>
  </defs>
  <path class="cls-1" d="m7.67,52.74c4.48-4.48,7.67-7.35,10.55-12.15C6.07,39.64,0,31.01,0,20.46,0,8.63,6.71,0,19.82,0s19.5,8.63,19.5,20.46c0,13.11-13.11,27.49-22.7,36.76-6.71,6.39-12.79-.64-8.95-4.47Zm52.1,0c4.48-4.48,7.67-7.35,10.55-12.15-12.15-.96-18.22-9.59-18.22-20.14,0-11.83,6.71-20.46,19.82-20.46s19.18,8.63,19.18,20.46c0,13.11-12.79,27.49-22.38,36.76-6.71,6.39-12.79-.64-8.95-4.47Z"/>
</svg>