<?xml version="1.0" encoding="UTF-8"?>
<svg id="Layer_1" data-name="Layer 1" xmlns="http://www.w3.org/2000/svg" viewBox="0 0 100.22 100.22">
  <defs>
    <style>
      .cls-1 {
        fill: #00bc70;
      }
    </style>
  </defs>
  <path class="cls-1" d="m50.11,100.22C22.48,100.22,0,77.74,0,50.11S22.48,0,50.11,0s50.11,22.48,50.11,50.11-22.48,50.11-50.11,50.11Zm0-89.73c-21.85,0-39.62,17.77-39.62,39.62s17.77,39.62,39.62,39.62,39.62-17.77,39.62-39.62S71.96,10.49,50.11,10.49Z"/>
  <path class="cls-1" d="m38.4,38.61c-.46-.75-.9-.93-1.42-1.94-.34-.66-.64-1.91-1.11-2.39-2.8,4.12-1.53,2.77-.42,10.67.45,3.3,1.48,9.64.79,12.81-.85,3.89-7.15,4.17-9.73,3.45-5.35-1.49-3.57-5.09-2.22-9.09-.71,1.23-1.91,2-2.66,4.72-2.46,8.95,10.64,12.22,15.98,2.49,2.22-4.04-1.92-16.69.81-20.72Zm7.19,7.49c-1.1-1.61-4.14-4.37-6.74-4.93-1.02,9.07,3.95,4.04,7.32,10.1.45.81,1.52,3.28,1.68,4.03.36-3.83-.44-6.58-2.25-9.21Zm22.91,5.64c-2.2-.86-4.26-1.16-5.97.42-1.19,1.1-2.49,2.78-2.94,4.85,1.37-.91,2.66-2.28,5.23-2.03,2.23.21,3.65,1.21,5.43,1.78-.34.61-.66.71-1.44,1.09-1.92.94-4.03,1.17-6.19,1.19-4,.01-5.01-.22-6.02-3.73-1.28-4.47-.3-11.74-1.42-15.43-.37-1.19-.33-.68-1-1.39-2.78,8.22-1.52,16.44-11.47,22.62-1.63,1-5.83,3.27-8.13,3.43.02.01.05.19.95.31.29.04.81.04,1.11.04,2.53.04,3.73-.07,6.27-.83,6.93-2.07,8.49-7.26,10.14-13.65.3-1.16.56-2.99.92-4.05.26.99-.02,6.44.7,10.07,1.63,8.27,7.39,6.52,14.06,4.51,2.91-.88,5.45-2.21,8.97-1.64l2.63-3.81c-6.41.25-7.38-2.02-11.82-3.75Z"/>
</svg>