<?xml version="1.0" encoding="UTF-8"?>
<svg id="Layer_1" data-name="Layer 1" xmlns="http://www.w3.org/2000/svg" viewBox="0 0 100.22 100.22">
  <defs>
    <style>
      .cls-1 {
        fill: #00bc70;
      }
    </style>
  </defs>
  <path class="cls-1" d="m50.11,100.22C22.48,100.22,0,77.74,0,50.11S22.48,0,50.11,0s50.11,22.48,50.11,50.11-22.48,50.11-50.11,50.11Zm0-89.73c-21.85,0-39.62,17.77-39.62,39.62s17.77,39.62,39.62,39.62,39.62-17.77,39.62-39.62S71.96,10.49,50.11,10.49Z"/>
  <polygon class="cls-1" points="69.73 77.19 78.12 85.54 85.54 78.12 69.73 61.87 69.73 77.19"/>
  <path class="cls-1" d="m62.82,39.38l-2.63-10.28c-.36-1.42-.07-2.89.66-4.17.21-.36.31-.79.28-1.24-.08-1.18-1.12-2.06-2.3-2.06h-15.76c-1.18,0-2.22.88-2.3,2.06-.03.45.08.88.28,1.24.73,1.27,1.02,2.75.66,4.17l-2.63,10.28c-1.02,3.99-1.54,8.09-1.54,12.21v20.89c0,3.6,2.92,6.53,6.53,6.53h13.76c3.6,0,6.53-2.92,6.53-6.53v-20.89c0-4.12-.52-8.22-1.54-12.21Zm-3.1,32.5c0,1.23-1,2.24-2.24,2.24h-13.07c-1.23,0-2.24-1-2.24-2.24v-19.85c0-.87.03-1.74.08-2.61,1.16-.32,1.95-.9,2.61-1.41.81-.62,1.35-1.03,2.59-1.03s1.78.41,2.59,1.03c.96.73,2.15,1.64,4.4,1.64s3.44-.91,4.4-1.64c.22-.17.42-.32.63-.46.16,1.49.25,2.98.25,4.48v19.85Z"/>
  <path class="cls-1" d="m35.85,27.43l-2.32,9.04c-.31,1.22-.58,2.44-.81,3.68L14.68,22.09l7.42-7.42,13.76,12.75Z"/>
</svg>