<?xml version="1.0" encoding="UTF-8"?>
<svg id="Layer_1" data-name="Layer 1" xmlns="http://www.w3.org/2000/svg" viewBox="0 0 294.2 70.11">
  <defs>
    <style>
      .cls-1 {
        fill: #fff;
      }

      .cls-2 {
        fill: #00bc70;
      }
    </style>
  </defs>
  <path class="cls-1" d="m36.98,36.93c-5.66-2.36-10.68-3.54-15.06-3.54-3.54,0-5.32.93-5.32,2.8,0,.59.3,1.08.91,1.47.61.39,1.38.69,2.33.91.95.22,2.18.45,3.71.7.19.03.33.05.42.05l3.36.51c9.98,1.52,14.97,6.16,14.97,13.9,0,5.04-1.87,8.97-5.6,11.8-3.73,2.83-8.92,4.24-15.58,4.24-9.11,0-16.15-1.6-21.12-4.8l5.08-11.28c4.79,2.86,10.17,4.29,16.13,4.29,4.26,0,6.39-.99,6.39-2.99,0-.84-.54-1.49-1.61-1.96-1.07-.47-2.95-.9-5.62-1.31l-2.66-.37c-5.53-.81-9.61-2.38-12.22-4.71-2.61-2.33-3.92-5.56-3.92-9.7,0-4.85,1.73-8.61,5.2-11.28,3.47-2.67,8.32-4.01,14.57-4.01,3.67,0,6.91.29,9.72.86,2.81.58,6.13,1.59,9.96,3.05l-4.06,11.38Z"/>
  <polygon class="cls-1" points="103.29 52.04 112.2 22.85 127.54 22.85 111.78 68.6 95.5 68.6 86.59 41.22 77.78 68.6 61.6 68.6 45.79 22.85 61.32 22.85 70.13 51.9 79.37 22.85 93.96 22.85 103.29 52.04"/>
  <path class="cls-1" d="m134.63,2.52c1.68-1.68,3.75-2.52,6.2-2.52s4.52.85,6.2,2.54c1.68,1.69,2.52,3.77,2.52,6.23s-.84,4.48-2.52,6.16c-1.68,1.68-3.75,2.52-6.2,2.52s-4.52-.84-6.2-2.52c-1.68-1.68-2.52-3.73-2.52-6.16s.84-4.57,2.52-6.25m13.57,66.08h-14.6V22.85h14.6v45.75Z"/>
  <path class="cls-1" d="m193.57,35.77h-15.62v13.38c0,4.69,2.16,7.04,6.48,7.04,2.08,0,4.73-.95,7.93-2.84l5.04,11.38c-2.46,1.68-4.92,2.95-7.39,3.8-2.47.85-5.42,1.28-8.84,1.28-5.97,0-10.43-1.66-13.38-4.97-2.95-3.31-4.43-7.92-4.43-13.83v-15.25h-8.53v-12.92h8.53v-13.34h14.6v13.34h15.62v12.92Z"/>
  <path class="cls-1" d="m264.96,27.65c2.86-4.04,7.2-6.06,13.01-6.06,4.69,0,8.57,1.54,11.63,4.62,3.06,3.08,4.59,7.2,4.59,12.36v30.03h-14.6v-24.85c0-2.7-.64-4.79-1.91-6.25-1.28-1.46-3.05-2.19-5.32-2.19s-3.96.74-5.34,2.21c-1.38,1.48-2.08,3.63-2.08,6.46v24.62h-14.6V1.4h14.6v26.25Z"/>
  <path class="cls-1" d="m200.43,51.89c2.36,9.01,9.81,16.26,19.6,17.88,9.47,1.57,18.58-2.55,23.82-9.86l-11.61-8.28c-2.16,3.38-6,5.34-9.98,4.68-4.44-.74-7.67-4.52-8.18-9.07l-13.65,4.64Z"/>
  <path class="cls-2" d="m217.39,37.88c2.21-2.15,5.26-3.26,8.39-2.74,2.79.46,5.11,2.13,6.57,4.44l11.5-8.03c-3.63-5.07-9.19-8.76-15.83-9.86-8.01-1.33-15.76,1.41-21.13,6.71l-3-2.71-4.62,21.58,20.99-6.79-2.87-2.59Z"/>
</svg>