<?xml version="1.0" encoding="UTF-8"?>
<svg id="Layer_1" data-name="Layer 1" xmlns="http://www.w3.org/2000/svg" viewBox="0 0 357.95 122.94">
  <defs>
    <style>
      .cls-1 {
        fill: #fff;
      }

      .cls-2 {
        fill: #00bc70;
      }
    </style>
  </defs>
  <g>
    <path class="cls-1" d="m45.26,44.9c-6.88-2.87-12.98-4.31-18.31-4.31-4.31,0-6.46,1.13-6.46,3.4,0,.72.37,1.31,1.11,1.78.74.47,1.68.84,2.83,1.11,1.15.26,2.65.55,4.51.85.23.04.4.06.51.06l4.08.62c12.13,1.85,18.2,7.48,18.2,16.89,0,6.12-2.27,10.9-6.8,14.34-4.54,3.44-10.85,5.16-18.93,5.16-11.07,0-19.63-1.95-25.68-5.84l6.18-13.72c5.82,3.48,12.36,5.22,19.61,5.22,5.18,0,7.77-1.21,7.77-3.63,0-1.02-.65-1.81-1.96-2.38-1.3-.57-3.58-1.1-6.83-1.59l-3.23-.45c-6.73-.98-11.68-2.89-14.85-5.73-3.17-2.83-4.76-6.76-4.76-11.79,0-5.9,2.11-10.47,6.32-13.72,4.21-3.25,10.12-4.88,17.72-4.88,4.46,0,8.4.35,11.82,1.05,3.42.7,7.45,1.94,12.1,3.71l-4.93,13.83Z"/>
    <polygon class="cls-1" points="125.87 63.26 136.69 27.78 155.35 27.78 136.18 83.39 116.4 83.39 105.57 50.11 94.86 83.39 75.19 83.39 55.97 27.78 74.85 27.78 85.56 63.09 96.79 27.78 114.53 27.78 125.87 63.26"/>
    <path class="cls-1" d="m163.96,3.06c2.04-2.04,4.55-3.06,7.54-3.06s5.5,1.03,7.54,3.09c2.04,2.06,3.06,4.58,3.06,7.57s-1.02,5.44-3.06,7.48c-2.04,2.04-4.56,3.06-7.54,3.06s-5.5-1.02-7.54-3.06c-2.04-2.04-3.06-4.54-3.06-7.48s1.02-5.56,3.06-7.6m16.5,80.33h-17.74V27.78h17.74v55.61Z"/>
    <path class="cls-1" d="m235.62,43.48h-18.99v16.27c0,5.71,2.63,8.56,7.88,8.56,2.53,0,5.74-1.15,9.64-3.46l6.12,13.83c-2.99,2.04-5.98,3.58-8.99,4.62-3.01,1.04-6.59,1.56-10.74,1.56-7.26,0-12.68-2.01-16.27-6.04-3.59-4.02-5.38-9.63-5.38-16.81v-18.54h-10.37v-15.7h10.37V11.56h17.74v16.21h18.99v15.7Z"/>
    <path class="cls-1" d="m322.41,33.62c3.48-4.91,8.75-7.37,15.82-7.37,5.71,0,10.42,1.87,14.14,5.61,3.72,3.74,5.58,8.75,5.58,15.02v36.51h-17.74v-30.22c0-3.29-.78-5.82-2.32-7.6-1.55-1.78-3.7-2.66-6.46-2.66s-4.81.9-6.49,2.69c-1.68,1.8-2.52,4.41-2.52,7.85v29.93h-17.74V1.7h17.74v31.92Z"/>
    <path class="cls-1" d="m243.96,63.08c2.87,10.96,11.93,19.77,23.82,21.74,11.52,1.91,22.59-3.1,28.96-11.99l-14.11-10.06c-2.63,4.11-7.3,6.5-12.13,5.69-5.4-.9-9.32-5.49-9.94-11.02l-16.6,5.64Z"/>
    <path class="cls-2" d="m264.57,46.04c2.69-2.61,6.4-3.96,10.2-3.33,3.39.56,6.21,2.59,7.98,5.39l13.98-9.76c-4.41-6.17-11.17-10.65-19.24-11.99-9.74-1.62-19.16,1.71-25.68,8.15l-3.65-3.3-5.62,26.23,25.52-8.25-3.49-3.15Z"/>
  </g>
  <g>
    <path class="cls-1" d="m5.42,111.81c-.75,0-1.44-.14-2.1-.42-.65-.28-1.23-.67-1.73-1.17s-.89-1.08-1.17-1.73c-.28-.66-.42-1.36-.42-2.11s.14-1.45.42-2.1c.28-.65.67-1.23,1.17-1.72.5-.49,1.08-.88,1.73-1.17.65-.28,1.35-.43,2.1-.43s1.45.14,2.11.43c.65.29,1.23.68,1.73,1.17.5.5.89,1.07,1.18,1.72.28.65.42,1.35.42,2.1s-.14,1.46-.42,2.11c-.28.66-.67,1.23-1.18,1.73s-1.08.89-1.73,1.17c-.65.28-1.36.42-2.11.42Zm.02-1.69c.68,0,1.31-.17,1.87-.51.57-.34,1.02-.79,1.36-1.37.34-.57.51-1.19.51-1.88s-.17-1.32-.51-1.88c-.34-.56-.79-1.02-1.36-1.35-.57-.34-1.19-.51-1.87-.51s-1.33.17-1.89.51c-.57.34-1.02.79-1.35,1.35-.33.57-.5,1.19-.5,1.88s.17,1.31.5,1.88c.33.57.78,1.03,1.35,1.37.57.34,1.2.51,1.89.51Zm-1.76-1.27v-4.99h2.12c.52,0,.93.15,1.23.45.3.3.46.7.47,1.19,0,.3-.07.58-.22.84s-.36.47-.66.63l.93,1.88h-1.03l-.83-1.71h-1.09v1.71h-.92Zm.92-2.56h1.23c.21,0,.38-.07.52-.22.14-.15.21-.33.21-.56,0-.25-.06-.44-.19-.57-.13-.13-.31-.2-.54-.2h-1.23v1.55Z"/>
    <path class="cls-1" d="m13.39,117.54v-2.21l6.49-5.79c.51-.45.86-.88,1.05-1.28s.29-.79.29-1.16c0-.51-.11-.96-.33-1.35s-.52-.71-.9-.94c-.38-.23-.82-.35-1.32-.35-.53,0-.99.12-1.4.36s-.72.56-.94.96c-.23.4-.33.83-.32,1.3h-2.61c0-1.01.23-1.89.68-2.65s1.08-1.33,1.88-1.75c.8-.41,1.72-.62,2.77-.62.97,0,1.84.22,2.61.65.77.43,1.38,1.03,1.82,1.79.44.76.66,1.64.66,2.63,0,.72-.1,1.33-.29,1.82-.2.49-.49.95-.88,1.36-.39.42-.87.87-1.45,1.38l-4.61,4.08-.23-.63h7.46v2.39h-10.45Z"/>
    <path class="cls-1" d="m31.82,117.88c-1.08,0-2.02-.23-2.85-.69s-1.46-1.1-1.92-1.92-.69-1.77-.69-2.85v-4.89c0-1.07.23-2.02.69-2.85s1.1-1.46,1.92-1.92c.82-.46,1.77-.69,2.85-.69s2.02.23,2.84.69c.82.46,1.46,1.1,1.92,1.92.46.82.7,1.77.7,2.85v4.89c0,1.08-.23,2.02-.7,2.85-.46.82-1.11,1.46-1.92,1.92-.82.46-1.77.69-2.84.69Zm0-2.41c.53,0,1.02-.13,1.45-.38.44-.26.78-.6,1.03-1.03.25-.43.38-.92.38-1.45v-5.26c0-.54-.13-1.03-.38-1.46-.25-.43-.6-.78-1.03-1.03-.44-.26-.92-.38-1.45-.38s-1.02.13-1.45.38c-.44.26-.78.6-1.03,1.03-.25.43-.38.92-.38,1.46v5.26c0,.53.13,1.02.38,1.45.25.43.6.78,1.03,1.03.44.26.92.38,1.45.38Z"/>
    <path class="cls-1" d="m39.81,117.54v-2.21l6.49-5.79c.51-.45.86-.88,1.05-1.28s.29-.79.29-1.16c0-.51-.11-.96-.33-1.35s-.52-.71-.9-.94c-.38-.23-.82-.35-1.32-.35-.53,0-.99.12-1.4.36s-.72.56-.94.96c-.23.4-.33.83-.32,1.3h-2.61c0-1.01.23-1.89.68-2.65s1.08-1.33,1.88-1.75c.8-.41,1.72-.62,2.77-.62.97,0,1.84.22,2.61.65.77.43,1.38,1.03,1.82,1.79.44.76.66,1.64.66,2.63,0,.72-.1,1.33-.29,1.82-.2.49-.49.95-.88,1.36-.39.42-.87.87-1.45,1.38l-4.61,4.08-.23-.63h7.46v2.39h-10.45Z"/>
    <path class="cls-1" d="m52.37,117.54v-2.21l6.49-5.79c.51-.45.86-.88,1.05-1.28s.29-.79.29-1.16c0-.51-.11-.96-.33-1.35s-.52-.71-.9-.94c-.38-.23-.82-.35-1.32-.35-.53,0-.99.12-1.4.36s-.72.56-.94.96c-.23.4-.33.83-.32,1.3h-2.61c0-1.01.23-1.89.68-2.65s1.08-1.33,1.88-1.75c.8-.41,1.72-.62,2.77-.62.97,0,1.84.22,2.61.65.77.43,1.38,1.03,1.82,1.79.44.76.66,1.64.66,2.63,0,.72-.1,1.33-.29,1.82-.2.49-.49.95-.88,1.36-.39.42-.87.87-1.45,1.38l-4.61,4.08-.23-.63h7.46v2.39h-10.45Z"/>
    <path class="cls-1" d="m75.17,117.88c-1.11,0-2.11-.19-3-.58-.89-.39-1.62-.94-2.19-1.66s-.94-1.58-1.09-2.57l2.64-.4c.22.9.69,1.6,1.39,2.09.7.49,1.51.74,2.42.74.54,0,1.05-.08,1.53-.25.48-.17.87-.42,1.16-.74.3-.32.45-.72.45-1.19,0-.21-.04-.41-.11-.58s-.17-.34-.31-.48c-.14-.14-.31-.27-.53-.38-.21-.12-.46-.22-.74-.3l-3.92-1.16c-.34-.1-.7-.23-1.09-.4-.39-.16-.76-.39-1.11-.68-.35-.29-.63-.66-.85-1.12-.22-.45-.33-1.01-.33-1.68,0-.98.25-1.8.74-2.46s1.16-1.16,2-1.49c.84-.33,1.77-.49,2.8-.49,1.04,0,1.97.18,2.78.53.81.35,1.5.85,2.04,1.51.55.66.93,1.46,1.16,2.39l-2.73.47c-.11-.53-.33-.99-.65-1.37-.32-.38-.71-.66-1.17-.86-.46-.2-.95-.3-1.47-.32-.51,0-.98.07-1.41.23s-.78.38-1.04.68-.4.64-.4,1.03c0,.37.11.68.34.91.23.23.5.42.84.56.33.14.67.25,1.02.34l2.72.76c.37.1.79.23,1.25.4.46.17.91.4,1.34.71.43.3.78.7,1.06,1.19.28.49.42,1.12.42,1.88s-.16,1.48-.49,2.07-.77,1.09-1.32,1.48c-.56.39-1.19.69-1.9.89-.71.2-1.46.29-2.24.29Z"/>
    <path class="cls-1" d="m86.2,117.57l-4.44-15.18h2.67l3.03,10.96,3.01-10.94,2.67-.02,3.02,10.96,3.01-10.96h2.67l-4.43,15.18h-2.51l-3.11-10.79-3.09,10.79h-2.51Z"/>
    <path class="cls-1" d="m103.77,117.57v-15.18h2.54v15.18h-2.54Z"/>
    <path class="cls-1" d="m113.12,117.57v-12.8h-4.91v-2.38h12.36v2.38h-4.91v12.8h-2.54Z"/>
    <path class="cls-1" d="m128.68,117.88c-1.52,0-2.82-.33-3.9-1s-1.91-1.59-2.49-2.78-.87-2.56-.87-4.13.29-2.94.87-4.13,1.41-2.11,2.49-2.78,2.38-1,3.9-1c1.75,0,3.21.44,4.38,1.31,1.17.87,1.98,2.05,2.46,3.54l-2.56.71c-.29-.99-.8-1.77-1.51-2.32s-1.63-.84-2.76-.84c-1.02,0-1.87.23-2.54.68-.68.46-1.19,1.1-1.53,1.92s-.52,1.79-.52,2.9c0,1.11.17,2.08.51,2.9.34.83.85,1.47,1.53,1.92s1.53.69,2.55.69c1.13,0,2.05-.28,2.76-.84s1.21-1.33,1.51-2.32l2.56.71c-.47,1.48-1.29,2.66-2.46,3.54-1.17.88-2.62,1.31-4.38,1.31Z"/>
    <path class="cls-1" d="m137.83,117.57v-15.18h2.54v6.39h7.19v-6.39h2.53v15.18h-2.53v-6.41h-7.19v6.41h-2.54Z"/>
    <path class="cls-1" d="m152.83,120.25l.15-1.1c.32.03.58-.03.77-.16.19-.14.32-.33.38-.58.07-.25.08-.53.05-.85h-1.35v-2.71h2.6v2.81c0,.92-.22,1.62-.65,2.09s-1.09.64-1.95.5Z"/>
    <path class="cls-1" d="m162.6,117.57l4.79-15.18h3.72l4.79,15.18h-2.61l-4.34-13.62h.57l-4.29,13.62h-2.61Zm2.67-3.29v-2.37h7.97v2.37h-7.97Z"/>
    <path class="cls-1" d="m178,117.57v-15.49h2.54v15.49h-2.54Z"/>
    <path class="cls-1" d="m183.91,117.57v-15.49h2.54v15.49h-2.54Z"/>
    <path class="cls-1" d="m193.83,117.57v-15.18h6.27c.15,0,.34,0,.57.02.23,0,.45.03.64.07.88.13,1.6.42,2.18.88.57.45,1,1.02,1.28,1.7.28.69.42,1.45.42,2.28,0,1.24-.31,2.3-.94,3.19-.62.89-1.58,1.44-2.88,1.65l-1.08.09h-3.91v5.3h-2.54Zm2.54-7.67h3.63c.14,0,.3,0,.47-.02.18-.01.34-.04.49-.08.42-.11.75-.29,1-.56.24-.27.41-.57.52-.91.1-.34.15-.67.15-.99s-.05-.66-.15-1c-.1-.34-.27-.64-.52-.91-.24-.27-.58-.45-1-.56-.15-.04-.31-.07-.49-.08s-.33-.02-.47-.02h-3.63v5.12Zm6.18,7.67l-2.99-6.18,2.58-.57,3.29,6.75h-2.88Z"/>
    <path class="cls-1" d="m207.95,104.45v-2.33h2.54v2.33h-2.54Zm0,13.11v-11.38h2.54v11.38h-2.54Z"/>
    <path class="cls-1" d="m218.22,117.88c-1.05,0-1.96-.26-2.74-.79-.78-.53-1.38-1.24-1.81-2.15s-.64-1.93-.64-3.07.22-2.18.65-3.08c.43-.9,1.05-1.62,1.84-2.14s1.73-.79,2.8-.79,1.99.26,2.72.79,1.29,1.24,1.67,2.14c.38.91.57,1.93.57,3.08s-.19,2.15-.57,3.06c-.38.91-.95,1.63-1.7,2.16s-1.68.79-2.79.79Zm.22,5.06c-.63,0-1.24-.1-1.82-.29-.58-.2-1.1-.48-1.56-.85s-.84-.81-1.14-1.33l2.34-1.16c.22.42.53.72.92.92.4.2.82.3,1.27.3.53,0,1-.09,1.41-.28.42-.19.74-.46.96-.82s.34-.81.32-1.35v-3.24h.32v-8.65h2.22v11.93c0,.29-.01.56-.04.83-.03.26-.07.52-.12.78-.17.74-.49,1.34-.97,1.82-.48.47-1.07.83-1.78,1.06-.71.23-1.49.35-2.35.35Zm.17-7.34c.68,0,1.23-.16,1.65-.47s.72-.75.92-1.31.29-1.21.29-1.95-.1-1.4-.29-1.96c-.19-.56-.49-1-.9-1.31-.41-.31-.93-.47-1.58-.47-.68,0-1.24.17-1.69.5-.44.33-.77.78-.98,1.35s-.32,1.19-.32,1.88.1,1.33.31,1.89.53,1.01.95,1.34c.43.33.97.5,1.63.5Z"/>
    <path class="cls-1" d="m226.62,117.57v-15.18h2.27v7.99h.31v7.19h-2.57Zm7.89,0v-5.48c0-.36-.02-.76-.07-1.19-.05-.44-.16-.86-.34-1.26-.18-.4-.45-.74-.8-1s-.83-.39-1.44-.39c-.32,0-.64.05-.96.16-.32.11-.6.29-.86.54-.26.26-.46.61-.62,1.05-.16.45-.23,1.02-.23,1.71l-1.51-.64c0-.97.19-1.85.56-2.63s.93-1.41,1.66-1.88c.73-.47,1.63-.7,2.7-.7.84,0,1.54.14,2.09.42.55.28.98.64,1.31,1.08.32.44.56.9.72,1.39.15.49.25.96.3,1.4s.07.8.07,1.07v6.36h-2.57Z"/>
    <path class="cls-1" d="m238.56,108.17v-1.99h7.94v1.99h-7.94Zm7.94,9.39c-.75.14-1.49.2-2.21.18s-1.37-.15-1.93-.4c-.57-.25-1-.64-1.3-1.19-.26-.49-.4-.99-.41-1.51-.01-.51-.02-1.09-.02-1.74v-9.9h2.53v9.75c0,.46,0,.86.02,1.2.01.34.08.62.22.84.25.42.66.66,1.21.71.55.05,1.19.02,1.9-.08v2.13Z"/>
    <path class="cls-1" d="m253.35,117.88c-1.41,0-2.55-.32-3.43-.95-.88-.63-1.41-1.52-1.6-2.67l2.59-.4c.13.56.43,1,.88,1.33.46.32,1.03.48,1.73.48.61,0,1.08-.12,1.42-.36s.5-.57.5-1c0-.26-.06-.47-.18-.63s-.39-.31-.81-.46c-.41-.15-1.05-.33-1.91-.56-.96-.25-1.71-.53-2.28-.82-.56-.29-.97-.64-1.21-1.04s-.37-.88-.37-1.46c0-.71.19-1.33.56-1.85.37-.53.89-.93,1.56-1.22.67-.28,1.45-.43,2.36-.43s1.67.14,2.36.41c.68.27,1.24.66,1.66,1.17s.68,1.1.78,1.78l-2.59.46c-.06-.49-.28-.87-.66-1.15-.38-.28-.88-.44-1.5-.47-.6-.04-1.08.05-1.44.27-.37.21-.55.52-.55.9,0,.22.07.4.22.56.15.16.44.31.89.46s1.11.34,2,.57c.91.23,1.63.5,2.18.8.54.3.94.66,1.18,1.07.24.41.36.92.36,1.51,0,1.15-.42,2.04-1.25,2.7s-1.98.98-3.45.98Z"/>
    <path class="cls-1" d="m264.58,117.57v-15.18h6.27c.15,0,.34,0,.57.02.23,0,.45.03.64.07.88.13,1.6.42,2.18.88.57.45,1,1.02,1.28,1.7.28.69.42,1.45.42,2.28,0,1.24-.31,2.3-.94,3.19-.62.89-1.58,1.44-2.88,1.65l-1.08.09h-3.91v5.3h-2.54Zm2.54-7.67h3.63c.14,0,.3,0,.47-.02.18-.01.34-.04.49-.08.42-.11.75-.29,1-.56.24-.27.41-.57.52-.91.1-.34.15-.67.15-.99s-.05-.66-.15-1c-.1-.34-.27-.64-.52-.91-.24-.27-.58-.45-1-.56-.15-.04-.31-.07-.49-.08s-.33-.02-.47-.02h-3.63v5.12Zm6.18,7.67l-2.99-6.18,2.58-.57,3.29,6.75h-2.88Z"/>
    <path class="cls-1" d="m283.67,117.88c-1.15,0-2.17-.25-3.04-.75-.87-.5-1.55-1.19-2.04-2.08-.49-.89-.73-1.9-.73-3.06,0-1.24.24-2.32.72-3.24.48-.92,1.14-1.63,1.99-2.13.85-.51,1.83-.76,2.95-.76,1.18,0,2.18.28,3.01.83.83.55,1.44,1.33,1.84,2.33.4,1,.55,2.19.45,3.55h-2.52v-.93c0-1.24-.22-2.14-.65-2.71s-1.1-.85-2.02-.85c-1.04,0-1.81.32-2.32.96s-.76,1.58-.76,2.82c0,1.15.25,2.04.76,2.68s1.24.95,2.21.95c.62,0,1.16-.14,1.62-.42.45-.28.8-.68,1.05-1.21l2.51.76c-.44,1.03-1.11,1.82-2.02,2.39-.91.57-1.91.85-3.01.85Zm-3.92-5.3v-1.92h7.83v1.92h-7.83Z"/>
    <path class="cls-1" d="m295.58,117.88c-1.41,0-2.55-.32-3.43-.95-.88-.63-1.41-1.52-1.6-2.67l2.59-.4c.13.56.43,1,.88,1.33.46.32,1.03.48,1.73.48.61,0,1.08-.12,1.42-.36s.5-.57.5-1c0-.26-.06-.47-.18-.63s-.39-.31-.81-.46c-.41-.15-1.05-.33-1.91-.56-.96-.25-1.71-.53-2.28-.82-.56-.29-.97-.64-1.21-1.04s-.37-.88-.37-1.46c0-.71.19-1.33.56-1.85.37-.53.89-.93,1.56-1.22.67-.28,1.45-.43,2.36-.43s1.67.14,2.36.41c.68.27,1.24.66,1.66,1.17s.68,1.1.78,1.78l-2.59.46c-.06-.49-.28-.87-.66-1.15-.38-.28-.88-.44-1.5-.47-.6-.04-1.08.05-1.44.27-.37.21-.55.52-.55.9,0,.22.07.4.22.56.15.16.44.31.89.46s1.11.34,2,.57c.91.23,1.63.5,2.18.8.54.3.94.66,1.18,1.07.24.41.36.92.36,1.51,0,1.15-.42,2.04-1.25,2.7s-1.98.98-3.45.98Z"/>
    <path class="cls-1" d="m307.78,117.88c-1.15,0-2.17-.25-3.04-.75-.87-.5-1.55-1.19-2.04-2.08-.49-.89-.73-1.9-.73-3.06,0-1.24.24-2.32.72-3.24.48-.92,1.14-1.63,1.99-2.13.85-.51,1.83-.76,2.95-.76,1.18,0,2.18.28,3.01.83.83.55,1.44,1.33,1.84,2.33.4,1,.55,2.19.45,3.55h-2.52v-.93c0-1.24-.22-2.14-.65-2.71s-1.1-.85-2.02-.85c-1.04,0-1.81.32-2.32.96s-.76,1.58-.76,2.82c0,1.15.25,2.04.76,2.68s1.24.95,2.21.95c.62,0,1.16-.14,1.62-.42.45-.28.8-.68,1.05-1.21l2.51.76c-.44,1.03-1.11,1.82-2.02,2.39-.91.57-1.91.85-3.01.85Zm-3.92-5.3v-1.92h7.83v1.92h-7.83Z"/>
    <path class="cls-1" d="m315.29,117.57v-11.38h2.25v2.77l-.27-.36c.14-.38.33-.72.56-1.04s.52-.57.85-.78c.28-.19.59-.34.93-.45.34-.11.69-.18,1.05-.2.36-.02.71,0,1.04.05v2.37c-.34-.1-.73-.13-1.17-.1-.44.04-.83.16-1.19.37-.35.19-.64.43-.86.73-.22.29-.38.63-.49,1.01-.11.38-.16.78-.16,1.22v5.79h-2.55Z"/>
    <path class="cls-1" d="m326.78,117.57l-4.13-11.38h2.54l2.87,8.25,2.86-8.25h2.55l-4.13,11.38h-2.55Z"/>
    <path class="cls-1" d="m340.12,117.88c-1.15,0-2.17-.25-3.04-.75-.87-.5-1.55-1.19-2.04-2.08-.49-.89-.73-1.9-.73-3.06,0-1.24.24-2.32.72-3.24.48-.92,1.14-1.63,1.99-2.13.85-.51,1.83-.76,2.95-.76,1.18,0,2.18.28,3.01.83.83.55,1.44,1.33,1.84,2.33.4,1,.55,2.19.45,3.55h-2.52v-.93c0-1.24-.22-2.14-.65-2.71s-1.1-.85-2.02-.85c-1.04,0-1.81.32-2.32.96s-.76,1.58-.76,2.82c0,1.15.25,2.04.76,2.68s1.24.95,2.21.95c.62,0,1.16-.14,1.62-.42.45-.28.8-.68,1.05-1.21l2.51.76c-.44,1.03-1.11,1.82-2.02,2.39-.91.57-1.91.85-3.01.85Zm-3.92-5.3v-1.92h7.83v1.92h-7.83Z"/>
    <path class="cls-1" d="m352.2,117.88c-1.05,0-1.96-.26-2.74-.79-.78-.53-1.38-1.24-1.81-2.15s-.64-1.93-.64-3.07.22-2.18.65-3.08c.43-.9,1.05-1.62,1.84-2.14s1.73-.79,2.8-.79,1.99.26,2.72.79,1.29,1.24,1.67,2.14c.38.91.57,1.93.57,3.08s-.19,2.15-.57,3.06c-.38.91-.95,1.63-1.7,2.16s-1.68.79-2.79.79Zm.39-2.28c.68,0,1.23-.16,1.65-.47s.72-.75.92-1.31.29-1.21.29-1.95-.1-1.4-.29-1.96c-.19-.56-.49-1-.9-1.31-.41-.31-.93-.47-1.58-.47-.68,0-1.24.17-1.69.5-.44.33-.77.78-.98,1.35s-.32,1.19-.32,1.88.1,1.33.31,1.89.53,1.01.95,1.34c.43.33.97.5,1.63.5Zm2.86,1.96v-7.99h-.32v-7.19h2.56v15.18h-2.25Z"/>
  </g>
</svg>